# xmcd CD database file
#
# Track frame offsets:
#	150
#	12127
#	28140
#	42533
#	70073
#	87195
#	101587
#	118681
#	134365
#	150121
#	161667
#	176984
#
# Disc length: 2580 seconds
#
# Revision: 0
# Processed by: cddbd v1.4PL0 Copyright (c) Steve Scherf et al.
# Submitted via: CDex 1.50beta10
#
DISCID=970a120c
DTITLE=Vários - Raízes Sertanejas
DYEAR=2003
DGENRE=Country
TTITLE0=Colcha de retalho
TTITLE1=Chitãozinho e Xororó
TTITLE2=Saudade da minha terra
TTITLE3=Pout-Porri
TTITLE4=Boiadeiro errante
TTITLE5=Brasil de boiada e tropeiro
TTITLE6=Os três boiadeiros
TTITLE7=Casa de caboclo
TTITLE8=Paineira véia
TTITLE9=Ferreirinha na viola
TTITLE10=Pé de cedro
TTITLE11=No colo da noite
EXTD=YEAR: 2003
EXTT0=
EXTT1=
EXTT2=
EXTT3=
EXTT4=
EXTT5=
EXTT6=
EXTT7=
EXTT8=
EXTT9=
EXTT10=
EXTT11=
PLAYORDER=
